<svg width="144" height="13" viewBox="0 0 144 13" fill="none" xmlns="http://www.w3.org/2000/svg">
<path d="M7.68164 12.3311L6.65332 9.57129H2.10059L1.07227 12.4189C1.00781 12.5713 0.952148 12.6709 0.905273 12.7178C0.858398 12.7588 0.776367 12.7793 0.65918 12.7793H0.28125C0.09375 12.7793 0.0351562 12.6592 0.105469 12.4189L4.53516 0.342773C4.62305 0.125977 4.7666 0.0175781 4.96582 0.0175781H5.10645C5.32324 0.0175781 5.4668 0.125977 5.53711 0.342773L9.89648 12.1465C9.99023 12.3867 10.0078 12.5537 9.94922 12.6475C9.89648 12.7354 9.76465 12.7793 9.55371 12.7793H8.40234C8.15625 12.7793 7.99219 12.7559 7.91016 12.709C7.83398 12.6621 7.75781 12.5361 7.68164 12.3311ZM6.36328 8.79785L4.35059 3.33105L2.37305 8.79785H6.36328ZM12.3311 12.7793H12.0762C11.8828 12.7793 11.7861 12.6826 11.7861 12.4893V0.518555C11.7861 0.37207 11.8125 0.269531 11.8652 0.210938C11.9238 0.152344 12.0293 0.123047 12.1816 0.123047C12.4688 0.123047 12.6914 0.231445 12.8496 0.448242L19.9072 9.2373V0.413086C19.9072 0.219727 20.0039 0.123047 20.1973 0.123047H20.4609C20.6543 0.123047 20.751 0.219727 20.751 0.413086V12.4014C20.751 12.665 20.6191 12.7969 20.3555 12.7969C20.0742 12.7969 19.8457 12.6885 19.6699 12.4717L12.6299 3.67383V12.4893C12.6299 12.6826 12.5303 12.7793 12.3311 12.7793ZM23.1064 6.5127C23.1064 5.88574 23.1621 5.28223 23.2734 4.70215C23.3848 4.11621 23.5781 3.5332 23.8535 2.95312C24.1348 2.36719 24.4893 1.86328 24.917 1.44141C25.3447 1.01367 25.8984 0.667969 26.5781 0.404297C27.2637 0.134766 28.04 0 28.9072 0C29.9268 0 30.8232 0.178711 31.5967 0.536133C32.376 0.887695 32.9854 1.37988 33.4248 2.0127C34.2861 3.22559 34.7168 4.71973 34.7168 6.49512C34.7168 7.12207 34.6611 7.72852 34.5498 8.31445C34.4443 8.89453 34.251 9.47461 33.9697 10.0547C33.6943 10.6348 33.3428 11.1387 32.915 11.5664C32.4932 11.9883 31.9395 12.334 31.2539 12.6035C30.5684 12.8672 29.792 12.999 28.9248 12.999C27.9111 12.999 27.0146 12.8203 26.2354 12.4629C25.4561 12.1055 24.8408 11.6104 24.3896 10.9775C23.5342 9.74707 23.1064 8.25879 23.1064 6.5127ZM28.9072 0.720703C27.6416 0.720703 26.7451 1.18945 26.2178 2.12695C25.6904 3.06445 25.4268 4.52051 25.4268 6.49512C25.4268 7.40918 25.4766 8.18848 25.5762 8.83301C25.6758 9.47168 25.8428 10.0605 26.0771 10.5996C26.5869 11.7188 27.5361 12.2783 28.9248 12.2783C30.29 12.2783 31.2246 11.7422 31.7285 10.6699C32.1855 9.68555 32.4141 8.31152 32.4141 6.54785C32.4141 5.12402 32.2822 3.97266 32.0186 3.09375C31.79 2.32617 31.4268 1.74023 30.9287 1.33594C30.4307 0.925781 29.7568 0.720703 28.9072 0.720703ZM37.5293 0.123047H40.3066C42.0586 0.123047 43.3418 0.404297 44.1562 0.966797C44.9707 1.52344 45.3779 2.39355 45.3779 3.57715C45.3779 5.46973 44.3174 6.58594 42.1963 6.92578C42.8525 7.08984 43.3887 7.37695 43.8047 7.78711C44.2207 8.19727 44.5723 8.75684 44.8594 9.46582L45.5273 11.127C45.6035 11.3555 45.7031 11.5928 45.8262 11.8389C45.9492 12.085 46.0488 12.2812 46.125 12.4277C46.2012 12.5684 46.2393 12.6562 46.2393 12.6914C46.2393 12.8203 46.0254 12.8848 45.5977 12.8848H44.9824C44.6074 12.8848 44.3174 12.8086 44.1123 12.6562C43.9072 12.5039 43.7285 12.2197 43.5762 11.8037L42.8027 10.0107C42.5977 9.50684 42.4219 9.11719 42.2754 8.8418C42.1348 8.56055 41.9502 8.27051 41.7217 7.97168C41.2881 7.3623 40.6787 7.05762 39.8936 7.05762H39.1904V12.3662C39.1904 12.6416 39.0381 12.7793 38.7334 12.7793H37.5293C37.2422 12.7793 37.0986 12.6416 37.0986 12.3662V0.518555C37.0986 0.254883 37.2422 0.123047 37.5293 0.123047ZM39.1904 1.18652V6.40723H40.3242C42.2402 6.40723 43.1982 5.47852 43.1982 3.62109C43.1982 1.71094 42.1963 0.755859 40.1924 0.755859H39.6914C39.5039 0.755859 39.375 0.785156 39.3047 0.84375C39.2344 0.902344 39.1963 1.0166 39.1904 1.18652ZM53.332 0.123047H56.1094C57.8613 0.123047 59.1445 0.404297 59.959 0.966797C60.7734 1.52344 61.1807 2.39355 61.1807 3.57715C61.1807 5.46973 60.1201 6.58594 57.999 6.92578C58.6553 7.08984 59.1914 7.37695 59.6074 7.78711C60.0234 8.19727 60.375 8.75684 60.6621 9.46582L61.3301 11.127C61.4062 11.3555 61.5059 11.5928 61.6289 11.8389C61.752 12.085 61.8516 12.2812 61.9277 12.4277C62.0039 12.5684 62.042 12.6562 62.042 12.6914C62.042 12.8203 61.8281 12.8848 61.4004 12.8848H60.7852C60.4102 12.8848 60.1201 12.8086 59.915 12.6562C59.71 12.5039 59.5312 12.2197 59.3789 11.8037L58.6055 10.0107C58.4004 9.50684 58.2246 9.11719 58.0781 8.8418C57.9375 8.56055 57.7529 8.27051 57.5244 7.97168C57.0908 7.3623 56.4814 7.05762 55.6963 7.05762H54.9932V12.3662C54.9932 12.6416 54.8408 12.7793 54.5361 12.7793H53.332C53.0449 12.7793 52.9014 12.6416 52.9014 12.3662V0.518555C52.9014 0.254883 53.0449 0.123047 53.332 0.123047ZM54.9932 1.18652V6.40723H56.127C58.043 6.40723 59.001 5.47852 59.001 3.62109C59.001 1.71094 57.999 0.755859 55.9951 0.755859H55.4941C55.3066 0.755859 55.1777 0.785156 55.1074 0.84375C55.0371 0.902344 54.999 1.0166 54.9932 1.18652ZM64.7754 0.123047H71.6924C71.8096 0.123047 71.8857 0.143555 71.9209 0.18457C71.9561 0.225586 71.9736 0.301758 71.9736 0.413086V0.500977C71.9736 0.694336 71.8799 0.791016 71.6924 0.791016H66.4365V5.99414H69.8555C69.9727 5.99414 70.0488 6.01465 70.084 6.05566C70.125 6.09668 70.1455 6.17285 70.1455 6.28418V6.35449C70.1455 6.55957 70.0488 6.66211 69.8555 6.66211H66.4365V12.0762H71.9385C72.1084 12.0762 72.1934 12.1553 72.1934 12.3135V12.542C72.1934 12.7002 72.1025 12.7793 71.9209 12.7793H64.793C64.5059 12.7793 64.3623 12.6416 64.3623 12.3662V0.518555C64.3623 0.254883 64.5 0.123047 64.7754 0.123047ZM73.7314 11.373L73.8018 11.2676C73.8721 11.127 73.9922 11.1035 74.1621 11.1973C75.3164 11.8652 76.415 12.1992 77.458 12.1992C78.2842 12.1992 78.9375 12.0088 79.418 11.6279C79.8984 11.2471 80.1387 10.7139 80.1387 10.0283C80.1387 9.37207 79.9365 8.86816 79.5322 8.5166C79.1045 8.12402 78.4424 7.70801 77.5459 7.26855C76.9951 6.99902 76.5234 6.75293 76.1309 6.53027C75.7852 6.33105 75.4307 6.09082 75.0674 5.80957C74.6865 5.49902 74.4141 5.16211 74.25 4.79883C74.0859 4.43555 74.0039 4.01074 74.0039 3.52441C74.0039 2.44043 74.3848 1.58203 75.1465 0.949219C75.9141 0.316406 76.9365 0 78.2139 0C79.374 0 80.4551 0.37207 81.457 1.11621C81.5859 1.19238 81.6035 1.29492 81.5098 1.42383L81.4395 1.51172C81.3516 1.65234 81.2314 1.67578 81.0791 1.58203C80.3232 0.996094 79.4414 0.703125 78.4336 0.703125C77.584 0.703125 76.9277 0.878906 76.4648 1.23047C76.002 1.58203 75.7705 2.09473 75.7705 2.76855C75.7705 3.34863 75.9551 3.80566 76.3242 4.13965C76.6758 4.46191 77.3115 4.85156 78.2314 5.30859C79.4971 5.95312 80.3145 6.42773 80.6836 6.73242C81.5098 7.41797 81.9229 8.27051 81.9229 9.29004C81.9229 10.3857 81.5391 11.2676 80.7715 11.9355C80.0039 12.6035 78.9727 12.9375 77.6777 12.9375C76.3359 12.9375 75.0439 12.5244 73.8018 11.6982C73.667 11.6045 73.6436 11.4961 73.7314 11.373ZM84.8145 0.123047H86.0625C86.3379 0.123047 86.4756 0.254883 86.4756 0.518555V12.3662C86.4756 12.6416 86.3232 12.7793 86.0186 12.7793H84.832C84.5449 12.7793 84.4014 12.6416 84.4014 12.3662V0.518555C84.4014 0.254883 84.5391 0.123047 84.8145 0.123047ZM89.5518 12.3838V0.536133C89.5518 0.260742 89.6953 0.123047 89.9824 0.123047H92.8828C94.9219 0.123047 96.5654 0.585938 97.8135 1.51172C98.4756 1.99219 98.9824 2.66016 99.334 3.51562C99.6914 4.36523 99.8701 5.36426 99.8701 6.5127C99.8701 10.6904 97.4941 12.7793 92.7422 12.7793H90.0527C89.8477 12.7793 89.7129 12.7529 89.6484 12.7002C89.584 12.6475 89.5518 12.542 89.5518 12.3838ZM92.7949 12.1113C94.5 12.1113 95.7334 11.6689 96.4951 10.7842C97.2568 9.89941 97.6377 8.45215 97.6377 6.44238C97.6377 4.37402 97.248 2.91504 96.4688 2.06543C95.6895 1.21582 94.4414 0.791016 92.7246 0.791016C92.2324 0.791016 91.9248 0.826172 91.8018 0.896484C91.6846 0.960937 91.626 1.11914 91.626 1.37109V11.5928C91.626 11.8037 91.6963 11.9443 91.8369 12.0146C91.9834 12.0791 92.3027 12.1113 92.7949 12.1113ZM102.691 0.123047H109.608C109.726 0.123047 109.802 0.143555 109.837 0.18457C109.872 0.225586 109.89 0.301758 109.89 0.413086V0.500977C109.89 0.694336 109.796 0.791016 109.608 0.791016H104.353V5.99414H107.771C107.889 5.99414 107.965 6.01465 108 6.05566C108.041 6.09668 108.062 6.17285 108.062 6.28418V6.35449C108.062 6.55957 107.965 6.66211 107.771 6.66211H104.353V12.0762H109.854C110.024 12.0762 110.109 12.1553 110.109 12.3135V12.542C110.109 12.7002 110.019 12.7793 109.837 12.7793H102.709C102.422 12.7793 102.278 12.6416 102.278 12.3662V0.518555C102.278 0.254883 102.416 0.123047 102.691 0.123047ZM112.878 12.7793H112.623C112.43 12.7793 112.333 12.6826 112.333 12.4893V0.518555C112.333 0.37207 112.359 0.269531 112.412 0.210938C112.471 0.152344 112.576 0.123047 112.729 0.123047C113.016 0.123047 113.238 0.231445 113.396 0.448242L120.454 9.2373V0.413086C120.454 0.219727 120.551 0.123047 120.744 0.123047H121.008C121.201 0.123047 121.298 0.219727 121.298 0.413086V12.4014C121.298 12.665 121.166 12.7969 120.902 12.7969C120.621 12.7969 120.393 12.6885 120.217 12.4717L113.177 3.67383V12.4893C113.177 12.6826 113.077 12.7793 112.878 12.7793ZM125.886 6.49512C125.886 8.3584 126.252 9.78516 126.984 10.7754C127.723 11.7656 128.839 12.2607 130.333 12.2607C131.294 12.2607 132.237 12.0205 133.163 11.54C133.304 11.4521 133.403 11.4639 133.462 11.5752L133.497 11.6104C133.591 11.7393 133.567 11.8535 133.427 11.9531C132.442 12.6504 131.291 12.999 129.973 12.999C128.086 12.999 126.562 12.4453 125.402 11.3379C124.26 10.2305 123.688 8.62793 123.688 6.53027C123.688 4.57324 124.242 2.99707 125.35 1.80176C126.463 0.600586 127.986 0 129.92 0C131.414 0 132.571 0.383789 133.392 1.15137C133.515 1.23926 133.521 1.34766 133.409 1.47656L133.374 1.5293C133.269 1.64648 133.154 1.65234 133.031 1.54688C132.334 0.996094 131.405 0.720703 130.245 0.720703C129.612 0.720703 129.047 0.826172 128.549 1.03711C128.051 1.24219 127.638 1.52344 127.31 1.88086C126.981 2.23242 126.709 2.65723 126.492 3.15527C126.275 3.65332 126.12 4.17773 126.026 4.72852C125.933 5.27344 125.886 5.8623 125.886 6.49512ZM136.213 0.123047H143.13C143.247 0.123047 143.323 0.143555 143.358 0.18457C143.394 0.225586 143.411 0.301758 143.411 0.413086V0.500977C143.411 0.694336 143.317 0.791016 143.13 0.791016H137.874V5.99414H141.293C141.41 5.99414 141.486 6.01465 141.521 6.05566C141.562 6.09668 141.583 6.17285 141.583 6.28418V6.35449C141.583 6.55957 141.486 6.66211 141.293 6.66211H137.874V12.0762H143.376C143.546 12.0762 143.631 12.1553 143.631 12.3135V12.542C143.631 12.7002 143.54 12.7793 143.358 12.7793H136.23C135.943 12.7793 135.8 12.6416 135.8 12.3662V0.518555C135.8 0.254883 135.938 0.123047 136.213 0.123047Z" fill="#AA0000"/>
</svg>
